<svg width="79" height="78" viewBox="0 0 79 78" fill="none" xmlns="http://www.w3.org/2000/svg">
<g filter="url(#filter0_dd_618_3261)">
<rect x="21.5" y="20" width="30" height="30" rx="15" fill="#0A22FB"/>
<rect x="22.5" y="21" width="28" height="28" rx="14" stroke="white" stroke-width="2"/>
<path d="M38.0667 29C38.7133 29.0067 39.24 29.3396 39.5467 29.939C39.6258 30.0971 39.7362 30.3281 39.8519 30.5718L39.9915 30.8664L40.06 31.0111L40.1267 31.1576C40.1533 31.2042 40.2 31.2375 40.26 31.2375C41.86 31.2375 43.1667 32.5427 43.1667 34.141V38.0966C43.1667 39.6948 41.86 41 40.26 41H32.74C31.1333 41 29.8333 39.6948 29.8333 38.0966V34.141C29.8333 32.5427 31.1333 31.2375 32.74 31.2375C32.7933 31.2375 32.8467 31.2109 32.8667 31.1576L32.9067 31.0777C33.0933 30.6848 33.32 30.2053 33.4533 29.939C33.76 29.3396 34.28 29.0067 34.9267 29H38.0667ZM36.5 33.2686C35.8 33.2686 35.14 33.5416 34.64 34.0411C34.1467 34.5405 33.8733 35.1931 33.88 35.8857C33.88 36.5849 34.1533 37.2375 34.6467 37.737C35.1467 38.2297 35.8 38.5028 36.5 38.5028C37.22 38.5028 37.8733 38.2098 38.3467 37.737C38.82 37.2642 39.1133 36.6115 39.12 35.8857C39.12 35.1931 38.8467 34.5339 38.3533 34.0344C37.86 33.5416 37.2 33.2686 36.5 33.2686ZM36.5 34.2675C36.9333 34.2675 37.34 34.434 37.6467 34.7403C37.9533 35.0466 38.12 35.4528 38.12 35.8857C38.1133 36.778 37.3933 37.5039 36.5 37.5039C36.0667 37.5039 35.66 37.3374 35.3533 37.0311C35.0467 36.7248 34.88 36.3185 34.88 35.8857V35.879C34.8733 35.4595 35.04 35.0533 35.3467 34.7469C35.66 34.434 36.0667 34.2675 36.5 34.2675ZM40.24 33.1088C39.9067 33.1088 39.64 33.3818 39.64 33.7148C39.64 34.0477 39.9067 34.3141 40.24 34.3141C40.5733 34.3141 40.8467 34.0477 40.8467 33.7148C40.8467 33.3818 40.5733 33.1088 40.24 33.1088Z" fill="white"/>
</g>
<defs>
<filter id="filter0_dd_618_3261" x="0.5" y="0" width="78" height="78" filterUnits="userSpaceOnUse" color-interpolation-filters="sRGB">
<feFlood flood-opacity="0" result="BackgroundImageFix"/>
<feColorMatrix in="SourceAlpha" type="matrix" values="0 0 0 0 0 0 0 0 0 0 0 0 0 0 0 0 0 0 127 0" result="hardAlpha"/>
<feMorphology radius="1" operator="dilate" in="SourceAlpha" result="effect1_dropShadow_618_3261"/>
<feOffset dx="3" dy="4"/>
<feGaussianBlur stdDeviation="11.5"/>
<feComposite in2="hardAlpha" operator="out"/>
<feColorMatrix type="matrix" values="0 0 0 0 0.756863 0 0 0 0 0.772549 0 0 0 0 0.823529 0 0 0 0.15 0"/>
<feBlend mode="normal" in2="BackgroundImageFix" result="effect1_dropShadow_618_3261"/>
<feColorMatrix in="SourceAlpha" type="matrix" values="0 0 0 0 0 0 0 0 0 0 0 0 0 0 0 0 0 0 127 0" result="hardAlpha"/>
<feOffset/>
<feGaussianBlur stdDeviation="0.5"/>
<feComposite in2="hardAlpha" operator="out"/>
<feColorMatrix type="matrix" values="0 0 0 0 0.756863 0 0 0 0 0.772549 0 0 0 0 0.823529 0 0 0 0.2 0"/>
<feBlend mode="normal" in2="effect1_dropShadow_618_3261" result="effect2_dropShadow_618_3261"/>
<feBlend mode="normal" in="SourceGraphic" in2="effect2_dropShadow_618_3261" result="shape"/>
</filter>
</defs>
</svg>
