<svg width="51" height="50" viewBox="0 0 51 50" fill="none" xmlns="http://www.w3.org/2000/svg">
<path d="M25.51 25.6853C25.8878 25.2365 26.3247 24.8361 26.8324 24.545C28.5209 23.5866 30.4455 24.1325 31.3547 25.8916C32.2402 27.6021 32.2048 29.3491 31.3074 31.0596C30.5517 32.5154 29.4418 33.6436 28.1666 34.6141C27.411 35.1843 26.608 35.6575 25.7343 36.0093C25.569 36.0699 25.4155 36.0821 25.2502 36.0093C23.5499 35.3178 22.1212 34.2259 20.905 32.8308C20.1139 31.9209 19.4645 30.9262 19.1693 29.7251C18.8387 28.3907 18.9922 27.0926 19.6298 25.8794C20.6098 24.0233 22.6998 23.5138 24.4119 24.6906C24.6126 24.824 24.8015 24.9938 24.9904 25.1516C25.1675 25.3093 25.3328 25.4791 25.5218 25.6732L25.51 25.6853ZM19.6534 28.4756C19.6534 29.2277 19.8542 30.0406 20.2792 30.7927C21.4718 32.8915 23.2075 34.3594 25.3565 35.3299C25.4509 35.3663 25.5808 35.3542 25.6753 35.3178C27.3755 34.5656 28.7924 33.4374 29.9496 31.9573C30.658 31.0596 31.2012 30.077 31.2956 28.9002C31.3783 27.8205 31.1894 26.8014 30.5636 25.9037C29.7843 24.7755 28.45 24.4601 27.2693 25.0909C26.6907 25.3942 26.2302 25.8309 25.8406 26.3526C25.5808 26.6923 25.3919 26.6923 25.1321 26.3526C24.7897 25.8916 24.3882 25.5034 23.9041 25.2001C22.6171 24.3994 21.1412 24.7391 20.3147 26.0372C19.8306 26.7893 19.6771 27.6385 19.6534 28.4877V28.4756Z" fill="#9BCFB0"/>
<path d="M15.2438 25.9354C14.0533 25.9354 12.9044 25.9354 11.7694 25.9354C11.6586 25.9354 11.5479 25.9354 11.451 25.9354C11.0496 25.8877 10.8696 25.5178 11.1049 25.2314C11.1603 25.1598 11.2572 25.1001 11.3264 25.0285C15.6175 21.3173 19.9225 17.6062 24.2275 13.895C25.0718 13.1671 25.9162 13.1671 26.7606 13.895C28.311 15.2315 29.8613 16.568 31.4116 17.9045C31.4947 17.9761 31.5778 18.0357 31.7162 18.1551C31.7162 17.9999 31.7162 17.9045 31.7162 17.809C31.7162 16.4009 31.7162 14.9928 31.7162 13.5967C31.7162 13.1432 31.8823 13 32.4083 13C32.9758 13 33.5295 13 34.0971 13C34.6508 13 34.8169 13.1313 34.8169 13.6086C34.8169 15.9117 34.8169 18.2267 34.8169 20.5298C34.8169 20.7684 34.8999 20.9235 35.0937 21.0906C36.6025 22.3794 38.0837 23.6681 39.5786 24.9569C39.634 25.0047 39.7032 25.0643 39.7586 25.112C39.9385 25.2672 40.0631 25.4342 39.9662 25.661C39.8555 25.8996 39.634 25.9593 39.371 25.9474C38.3605 25.9474 37.3638 25.9474 36.3534 25.9474C36.2426 25.9474 36.118 25.9474 35.9796 25.9474C35.9796 26.1025 35.9796 26.2099 35.9796 26.3292C35.9796 29.754 35.9796 33.1788 35.9796 36.6036C35.9796 37.3673 35.4951 37.9043 34.7061 38.0355C34.5677 38.0594 34.4293 38.0594 34.2908 38.0594C28.5186 38.0594 22.7463 38.0594 16.9741 38.0594C15.8944 38.0594 15.2715 37.5224 15.2715 36.5916C15.2715 33.1788 15.2715 29.7659 15.2715 26.3412C15.2715 26.2218 15.2715 26.1025 15.2715 25.9474L15.2438 25.9354ZM25.584 37.1764C28.4494 37.1764 31.3009 37.1764 34.1663 37.1764C34.7892 37.1764 34.9553 37.0451 34.9553 36.4962C34.9553 32.8805 34.9553 29.2528 34.9553 25.6371C34.9553 25.4223 34.8861 25.2791 34.7061 25.124C31.7992 22.63 28.9062 20.124 25.9993 17.63C25.6117 17.2959 25.3764 17.2959 24.9888 17.63C22.1511 20.0763 19.3273 22.5106 16.4896 24.9569C16.3235 25.1001 16.2543 25.2433 16.2681 25.4462C16.2681 29.1454 16.2681 32.8327 16.2681 36.532C16.2681 37.069 16.4204 37.1883 17.0294 37.1883C19.881 37.1883 22.7325 37.1883 25.584 37.1883V37.1764ZM38.1529 25.0524C38.1529 25.0524 38.1944 24.9927 38.2221 24.9569C38.139 24.8973 38.0421 24.8615 37.9591 24.7899C33.9863 21.3651 30.0136 17.9522 26.0547 14.5274C25.5979 14.1336 25.4041 14.1336 24.9473 14.5274C20.9745 17.9522 17.0018 21.377 13.0429 24.8018C12.9598 24.8734 12.8906 24.945 12.7798 25.0524C13.4304 25.0524 14.0118 25.0524 14.5932 25.0524C14.8424 25.0524 15.0085 24.9927 15.1884 24.8376C18.2337 22.2123 21.279 19.587 24.3244 16.9618C25.0718 16.3174 25.9716 16.3174 26.7191 16.9618C28.4355 18.4295 30.1381 19.9092 31.8546 21.3889C33.2388 22.5822 34.6231 23.7636 36.0073 24.9569C36.0627 25.0047 36.1457 25.0524 36.2288 25.0524C36.8794 25.0524 37.5438 25.0524 38.1944 25.0524H38.1529ZM33.7648 19.9689V13.895H32.7405C32.7405 15.5895 32.7405 17.2601 32.7405 18.9427C32.7405 19.0143 32.782 19.0859 32.8374 19.1336C33.1281 19.3961 33.4188 19.6586 33.7648 19.9689Z" fill="#0A22FB"/>
<path d="M33.7649 19.9689C33.4188 19.6467 33.1143 19.3961 32.8374 19.1336C32.7821 19.0859 32.7405 19.0023 32.7405 18.9427C32.7405 17.272 32.7405 15.5895 32.7405 13.895H33.7649V19.9689Z" fill="white"/>
</svg>
