<svg width="42" height="42" viewBox="0 0 42 42" fill="none" xmlns="http://www.w3.org/2000/svg">
<circle cx="21" cy="21" r="20.5" fill="#97D8B2" stroke="white"/>
<path d="M24.9843 13.0588C28.0274 13.0588 29.8235 14.8099 29.8235 17.8075H26.0902V17.8381C24.3575 17.8381 22.9529 19.2075 22.9529 20.8968C22.9529 22.586 24.3575 23.9555 26.0902 23.9555H29.8235V24.2308C29.8235 27.1901 28.0274 28.9412 24.9843 28.9412H17.0157C13.9725 28.9412 12.1765 27.1901 12.1765 24.2308V17.7692C12.1765 14.8099 13.9725 13.0588 17.0157 13.0588H24.9843ZM29.1647 19.1227C29.5285 19.1227 29.8235 19.4103 29.8235 19.765V21.9979C29.8193 22.3509 29.5268 22.6361 29.1647 22.6402H26.1608C25.2836 22.6517 24.5166 22.0662 24.3176 21.2332C24.218 20.7161 24.3579 20.1826 24.6997 19.7755C25.0416 19.3684 25.5506 19.1295 26.0902 19.1227H29.1647ZM26.5137 20.155H26.2235C26.0453 20.153 25.8738 20.2206 25.747 20.3427C25.6203 20.4648 25.549 20.6313 25.549 20.805C25.549 21.1695 25.8497 21.4661 26.2235 21.4703H26.5137C26.8862 21.4703 27.1882 21.1759 27.1882 20.8127C27.1882 20.4495 26.8862 20.155 26.5137 20.155ZM21.3372 16.4922H16.3568C15.9874 16.4922 15.6866 16.782 15.6823 17.1422C15.6823 17.5067 15.9831 17.8033 16.3568 17.8075H21.3372C21.7098 17.8075 22.0117 17.513 22.0117 17.1498C22.0117 16.7867 21.7098 16.4922 21.3372 16.4922Z" fill="#FAFBFC"/>
</svg>
