<svg width="42" height="42" viewBox="0 0 42 42" fill="none" xmlns="http://www.w3.org/2000/svg">
<circle cx="21" cy="21" r="20.5" fill="#8D8D8D" fill-opacity="0.1" stroke="white"/>
<g clip-path="url(#clip0_622_3785)">
<path d="M20.0586 5C20.703 5 21.3514 5 21.9958 5C22.0846 5.01928 22.1772 5.04628 22.266 5.054C24.8786 5.25841 27.306 6.03748 29.5057 7.45679C33.4691 10.0177 35.908 13.62 36.7609 18.2713C36.8651 18.8421 36.923 19.4206 37.0002 19.9953V21.9314C36.9809 22.0317 36.9616 22.132 36.9462 22.2323C36.8149 23.0653 36.7416 23.91 36.5487 24.7238C34.2679 34.2925 23.9023 39.5494 14.8371 35.7542C7.90997 32.8539 3.96979 25.6687 5.23559 18.2212C6.32387 11.7996 11.4295 6.56587 17.8357 5.32012C18.5689 5.17741 19.3176 5.10413 20.0586 5ZM24.9674 30.9949C25.5192 30.9949 26.0711 31.0027 26.6229 30.9949C27.6649 30.9757 28.5371 30.2506 28.6915 29.2247C28.7571 28.785 28.7571 28.3337 28.73 27.8863C28.6413 26.3668 27.553 25.1326 26.0557 24.905C25.4729 24.8163 24.8709 24.8395 24.2805 24.8665C23.0185 24.932 22.1155 25.5684 21.5405 26.6869C21.1816 27.385 21.2202 28.137 21.2356 28.8853C21.2626 30.0809 22.1811 30.9795 23.3774 30.9949C23.91 31.0027 24.4387 30.9949 24.9712 30.9949H24.9674ZM17.0175 22.0124C17.0175 22.0124 17.0175 22.0124 17.0175 22.0086C17.581 22.0086 18.1406 22.024 18.704 22.0086C19.6765 21.9777 20.4946 21.3336 20.6876 20.3733C20.7802 19.9027 20.7609 19.4014 20.7455 18.9154C20.6992 17.4382 19.58 16.1578 18.1135 15.9379C17.554 15.8531 16.9712 15.8724 16.4039 15.8801C14.9568 15.8955 13.6948 16.8828 13.3707 18.2944C13.2587 18.7843 13.2549 19.3049 13.2549 19.8102C13.2549 21.0829 14.1541 21.9931 15.4276 22.0163C15.9563 22.0278 16.4888 22.0163 17.0214 22.0163L17.0175 22.0124ZM17.006 10.9781C17.006 10.9781 17.006 10.9935 17.006 11.0012C16.8169 11.0012 16.6316 11.0012 16.4425 11.0012C15.6707 11.0166 15.0571 11.5412 14.9799 12.3048C14.9375 12.7252 14.9413 13.1572 14.9915 13.5776C15.1034 14.5456 15.9177 15.2746 16.8902 15.3247C17.8897 15.3787 18.7889 14.7462 18.9896 13.782C19.0783 13.35 19.0629 12.8949 19.059 12.4475C19.0552 11.7687 18.5998 11.1979 17.936 11.0552C17.635 10.9896 17.3186 11.0012 17.006 10.9781ZM24.9867 19.9837C24.7899 19.9837 24.593 19.9799 24.3924 19.9837C23.5549 20.0107 22.9452 20.624 22.9298 21.457C22.9259 21.7463 22.922 22.0394 22.9298 22.3287C22.9568 23.3739 23.8135 24.2532 24.8516 24.3034C25.9322 24.3574 26.8699 23.6091 27.0011 22.5524C27.0475 22.1628 27.0552 21.7617 27.0282 21.3722C26.9664 20.5507 26.3682 20.0069 25.5462 19.9837C25.361 19.9799 25.1719 19.9837 24.9828 19.9837H24.9867ZM25.334 13.9748C25.3572 13.9632 25.3803 13.9555 25.4035 13.944C25.6041 14.1484 25.8048 14.3528 26.0055 14.5572C26.1791 14.7307 26.376 14.7732 26.5535 14.5919C26.7233 14.4222 26.6808 14.2294 26.5188 14.0674C26.1097 13.6547 25.6968 13.242 25.2838 12.8293C25.087 12.6326 24.8863 12.6249 24.6818 12.8216C24.2727 13.2227 23.8637 13.6238 23.4546 14.0249C23.2848 14.1908 23.2192 14.3836 23.4006 14.5726C23.5819 14.7616 23.7749 14.7115 23.9486 14.5418C24.1531 14.3451 24.3576 14.1445 24.6201 13.89C24.6201 14.3605 24.6201 14.75 24.6201 15.1434C24.6201 15.9032 24.6201 16.663 24.6201 17.4228C24.6201 17.6504 24.7281 17.8085 24.9712 17.8123C25.2182 17.8123 25.3186 17.6581 25.3263 17.4267C25.3263 17.3418 25.3263 17.2608 25.3263 17.176C25.3263 16.2195 25.3263 15.2591 25.3263 14.3026C25.3263 14.1908 25.3263 14.0828 25.3263 13.971L25.334 13.9748ZM17.4459 28.056C17.4189 28.0406 17.3919 28.029 17.3649 28.0136C17.3649 27.9133 17.3649 27.8131 17.3649 27.7089C17.3649 26.6792 17.3649 25.6494 17.3649 24.6196C17.3649 24.2532 17.0832 24.0334 16.8362 24.2224C16.7281 24.3072 16.6664 24.5039 16.6625 24.6505C16.6471 25.6687 16.6548 26.6869 16.6548 27.7089C16.6548 27.8131 16.6548 27.9211 16.6548 28.0252C16.6201 28.0406 16.5853 28.056 16.5467 28.0753C16.3576 27.8671 16.1724 27.6588 15.9794 27.4544C15.8135 27.2808 15.6128 27.2307 15.4314 27.4158C15.2501 27.6009 15.3041 27.7899 15.4777 27.9635C15.8791 28.3569 16.2727 28.7541 16.6779 29.1475C16.9211 29.3828 17.087 29.3828 17.3224 29.1475C17.7238 28.7541 18.1174 28.353 18.5149 27.9596C18.6924 27.7822 18.7696 27.5817 18.5651 27.3927C18.3644 27.2037 18.1637 27.2885 17.9939 27.4698C17.8087 27.6665 17.6234 27.8632 17.4421 28.0599L17.4459 28.056Z" fill="#97D8B2"/>
<path d="M24.9672 30.9949C24.4346 30.9949 23.9059 31.0027 23.3734 30.9949C22.177 30.9795 21.2624 30.0809 21.2315 28.8853C21.2161 28.137 21.1775 27.385 21.5364 26.6869C22.1114 25.5684 23.0145 24.932 24.2764 24.8665C24.8669 24.8356 25.4689 24.8163 26.0516 24.905C27.549 25.1287 28.6372 26.3668 28.726 27.8863C28.753 28.3299 28.753 28.785 28.6874 29.2247C28.533 30.2506 27.6609 30.9795 26.6189 30.9949C26.0671 31.0065 25.5152 30.9949 24.9633 30.9949H24.9672ZM24.9711 30.2814C25.5036 30.2814 26.0323 30.2814 26.5649 30.2814C26.5842 30.2814 26.6073 30.2814 26.6266 30.2814C27.4293 30.2313 27.985 29.6759 28.0121 28.8775C28.0236 28.5574 28.0236 28.2335 28.0043 27.9095C27.9465 26.7679 27.1167 25.7921 25.9783 25.6262C25.3878 25.5414 24.7704 25.5337 24.1761 25.5877C23.0376 25.688 22.1616 26.5326 21.9879 27.6511C21.9301 28.0175 21.9378 28.3954 21.9378 28.7696C21.9378 29.6759 22.5282 30.2699 23.4428 30.2853C23.9522 30.293 24.4617 30.2853 24.9711 30.2853V30.2814Z" fill="white"/>
<path d="M17.0174 22.0124C16.4848 22.0124 15.9561 22.0201 15.4235 22.0124C14.15 21.9893 13.247 21.0829 13.2508 19.8063C13.2508 19.3011 13.2508 18.7804 13.3666 18.2906C13.6908 16.879 14.9566 15.8917 16.3999 15.8762C16.971 15.8685 17.5499 15.8531 18.1095 15.9341C19.576 16.1539 20.6951 17.4344 20.7414 18.9115C20.7569 19.3975 20.7762 19.8989 20.6835 20.3694C20.4906 21.3259 19.6724 21.9738 18.6999 22.0047C18.1404 22.024 17.5769 22.0047 17.0135 22.0047C17.0135 22.0047 17.0135 22.0047 17.0135 22.0086L17.0174 22.0124ZM16.9981 21.3066C17.5306 21.3066 18.0593 21.3143 18.5919 21.3066C19.437 21.295 20.0391 20.6895 20.0545 19.841C20.0584 19.5595 20.0622 19.2779 20.0545 19.0002C20.0043 17.7506 19.082 16.7363 17.8355 16.6167C17.2798 16.5627 16.7125 16.5704 16.1529 16.6206C15.1418 16.7132 14.2812 17.4614 14.069 18.4526C13.9686 18.9115 13.9764 19.4014 13.9841 19.8796C13.9957 20.7127 14.6015 21.295 15.439 21.3066C15.96 21.3143 16.4809 21.3066 17.0019 21.3066H16.9981Z" fill="white"/>
<path d="M17.0058 10.9781C17.3145 11.0012 17.6348 10.9896 17.9358 11.0552C18.5996 11.2018 19.055 11.7687 19.0589 12.4475C19.0589 12.891 19.0782 13.35 18.9894 13.782C18.7887 14.7462 17.8895 15.3787 16.89 15.3247C15.9137 15.2746 15.1032 14.5456 14.9913 13.5776C14.9412 13.1572 14.9373 12.7252 14.9797 12.3048C15.0608 11.5373 15.6744 11.0166 16.4424 11.0012C16.6315 10.9973 16.8167 11.0012 17.0058 11.0012C17.0058 10.9935 17.0058 10.9858 17.0058 10.9781ZM17.0212 11.7186C16.8244 11.7186 16.6237 11.707 16.4308 11.7186C15.9677 11.7494 15.6898 12.0425 15.6783 12.5054C15.6705 12.7869 15.6705 13.0685 15.6783 13.3461C15.7053 14.0172 16.2378 14.5649 16.9055 14.615C17.5769 14.6652 18.206 14.2139 18.3063 13.5506C18.3642 13.1764 18.3604 12.783 18.3333 12.4012C18.3063 12.0001 18.0169 11.7494 17.6117 11.7186C17.4149 11.7031 17.218 11.7186 17.0212 11.7186Z" fill="white"/>
<path d="M24.9865 19.9837C25.1756 19.9837 25.3608 19.9799 25.5499 19.9837C26.3719 20.0069 26.9701 20.5507 27.0318 21.3722C27.0627 21.7617 27.055 22.1628 27.0048 22.5524C26.8736 23.6091 25.9397 24.3612 24.8553 24.3034C23.8172 24.2532 22.9643 23.3739 22.9334 22.3287C22.9257 22.0394 22.9257 21.7463 22.9334 21.457C22.9489 20.624 23.5586 20.0107 24.396 19.9837C24.5929 19.976 24.7897 19.9837 24.9904 19.9837H24.9865ZM24.9981 20.6934C24.8013 20.6934 24.6044 20.6857 24.4076 20.6934C24.0024 20.7165 23.6975 20.9634 23.6667 21.3606C23.6358 21.7617 23.6319 22.1744 23.6975 22.5678C23.8017 23.1965 24.4424 23.6516 25.0675 23.6014C25.7545 23.5436 26.287 23.019 26.3179 22.3518C26.3333 22.051 26.3295 21.7502 26.3179 21.4493C26.3025 21.0289 26.013 20.7281 25.5924 20.6972C25.3956 20.6818 25.1987 20.6972 25.0019 20.6972L24.9981 20.6934Z" fill="white"/>
<path d="M25.3338 13.9748C25.3338 14.0867 25.3338 14.1947 25.3338 14.3065C25.3338 15.263 25.3338 16.2233 25.3338 17.1798C25.3338 17.2647 25.3338 17.3457 25.3338 17.4305C25.3261 17.6581 25.2258 17.8162 24.9788 17.8162C24.7356 17.8162 24.6276 17.6542 24.6276 17.4267C24.6276 16.6669 24.6276 15.9071 24.6276 15.1473C24.6276 14.7577 24.6276 14.3644 24.6276 13.8938C24.369 14.1445 24.1606 14.3451 23.9561 14.5456C23.7824 14.7115 23.5895 14.7655 23.4081 14.5765C23.2267 14.3875 23.2923 14.1985 23.4621 14.0288C23.8712 13.6277 24.2803 13.2266 24.6893 12.8255C24.89 12.6249 25.0945 12.6365 25.2914 12.8332C25.7043 13.2459 26.1172 13.6547 26.5263 14.0712C26.6884 14.2332 26.727 14.4261 26.561 14.5958C26.3835 14.777 26.1867 14.7346 26.013 14.5611C25.8123 14.3566 25.6117 14.1522 25.411 13.9478C25.3878 13.9594 25.3647 13.9671 25.3415 13.9787L25.3338 13.9748Z" fill="white"/>
<path d="M17.4457 28.056C17.631 27.8593 17.8162 27.6626 17.9976 27.4659C18.1674 27.2847 18.3681 27.1998 18.5687 27.3888C18.7733 27.5817 18.6961 27.7783 18.5186 27.9558C18.1211 28.353 17.7274 28.7503 17.3261 29.1437C17.0907 29.3751 16.9247 29.3751 16.6816 29.1437C16.2764 28.7541 15.8828 28.353 15.4814 27.9596C15.3078 27.7899 15.2537 27.5971 15.4351 27.412C15.6165 27.2268 15.8172 27.277 15.9831 27.4505C16.1761 27.6511 16.3613 27.8632 16.5504 28.0715C16.5851 28.056 16.6199 28.0406 16.6585 28.0213C16.6585 27.9172 16.6585 27.8092 16.6585 27.7051C16.6585 26.6869 16.6507 25.6648 16.6662 24.6466C16.6662 24.5001 16.7318 24.3034 16.8398 24.2185C17.083 24.0295 17.3647 24.2455 17.3685 24.6158C17.3724 25.6455 17.3685 26.6753 17.3685 27.7051C17.3685 27.8053 17.3685 27.9056 17.3685 28.0098C17.3956 28.0252 17.4226 28.0368 17.4496 28.0522L17.4457 28.056Z" fill="white"/>
<path d="M24.9711 30.2776C24.4616 30.2776 23.9522 30.2853 23.4428 30.2776C22.5321 30.2621 21.9416 29.672 21.9378 28.7618C21.9378 28.3877 21.93 28.0098 21.9879 27.6434C22.1616 26.5287 23.0415 25.6802 24.1761 25.58C24.7742 25.526 25.3878 25.5337 25.9783 25.6185C27.1167 25.7844 27.9464 26.7602 28.0043 27.9018C28.0198 28.2219 28.0236 28.5459 28.0121 28.8698C27.985 29.6682 27.4293 30.2236 26.6266 30.2737C26.6073 30.2737 26.5842 30.2737 26.5649 30.2737C26.0323 30.2737 25.5036 30.2737 24.9711 30.2737V30.2776Z" fill="#97D8B2"/>
<path d="M16.9981 21.3028C16.4771 21.3028 15.9561 21.3066 15.4351 21.3028C14.5938 21.2912 13.9879 20.7127 13.9802 19.8757C13.9764 19.4013 13.9686 18.9115 14.0651 18.4487C14.2774 17.4575 15.138 16.7093 16.1491 16.6167C16.7048 16.5666 17.2759 16.5589 17.8316 16.6129C19.0743 16.7324 19.9966 17.7468 20.0506 18.9964C20.0622 19.2779 20.0584 19.5595 20.0506 19.8372C20.0352 20.6818 19.4332 21.2873 18.588 21.3028C18.0555 21.3105 17.5268 21.3028 16.9942 21.3028H16.9981Z" fill="#97D8B2"/>
<path d="M17.0174 11.7186C17.2142 11.7186 17.4149 11.707 17.6078 11.7186C18.013 11.7494 18.3025 12.0001 18.3295 12.4012C18.3565 12.7831 18.3604 13.1726 18.3025 13.5506C18.1983 14.2139 17.5731 14.6652 16.9016 14.615C16.234 14.5649 15.7014 14.0172 15.6744 13.3461C15.6628 13.0646 15.6667 12.7869 15.6744 12.5054C15.686 12.0425 15.9638 11.7494 16.4269 11.7186C16.6237 11.7031 16.8206 11.7186 17.0174 11.7186Z" fill="#97D8B2"/>
<path d="M24.9942 20.6934C25.191 20.6934 25.3917 20.6818 25.5847 20.6934C26.0053 20.7242 26.2947 21.0251 26.3102 21.4455C26.3218 21.7463 26.3218 22.0471 26.3102 22.348C26.2793 23.0152 25.7467 23.5397 25.0598 23.5976C24.4385 23.6477 23.794 23.1926 23.6898 22.5639C23.6242 22.1705 23.6281 21.7579 23.6589 21.3568C23.6898 20.9595 23.9947 20.7127 24.3999 20.6895C24.5967 20.678 24.7935 20.6895 24.9904 20.6895L24.9942 20.6934Z" fill="#97D8B2"/>
</g>
<defs>
<clipPath id="clip0_622_3785">
<rect width="32" height="32" fill="white" transform="translate(5 5)"/>
</clipPath>
</defs>
</svg>
