<svg width="42" height="42" viewBox="0 0 42 42" fill="none" xmlns="http://www.w3.org/2000/svg">
<circle cx="21" cy="21" r="20.5" fill="#97D8B2" stroke="white"/>
<path d="M20.5524 12.1765C22.7429 12.1765 24.5294 13.9324 24.5294 16.0941V20.3206H19.1429C18.7569 20.3206 18.4517 20.6206 18.4517 21C18.4517 21.3706 18.7569 21.6794 19.1429 21.6794H24.5294V25.8971C24.5294 28.0588 22.7429 29.8235 20.5344 29.8235H16.1624C13.963 29.8235 12.1765 28.0676 12.1765 25.9059V16.1029C12.1765 13.9324 13.9719 12.1765 16.1714 12.1765H20.5524ZM26.7707 17.9561C27.0355 17.6825 27.4678 17.6825 27.7325 17.9472L30.309 20.5149C30.4413 20.6472 30.5119 20.8149 30.5119 21.0002C30.5119 21.1766 30.4413 21.3531 30.309 21.4766L27.7325 24.0443C27.6002 24.1766 27.4237 24.2472 27.256 24.2472C27.0796 24.2472 26.9031 24.1766 26.7707 24.0443C26.506 23.7796 26.506 23.3472 26.7707 23.0825L28.1825 21.6796H24.5296V20.3208H28.1825L26.7707 18.9178C26.506 18.6531 26.506 18.2208 26.7707 17.9561Z" fill="white"/>
</svg>
