<svg width="42" height="42" viewBox="0 0 42 42" fill="none" xmlns="http://www.w3.org/2000/svg">
<circle cx="21" cy="21" r="20.5" fill="#97D8B2" stroke="white"/>
<path d="M19.3803 30.9977C18.7996 30.3937 18.2005 29.8082 17.6383 29.1858C16.1497 27.5353 14.7994 25.7787 13.7026 23.84C13.0367 22.6597 12.4698 21.4356 12.1864 20.1032C11.6748 17.6943 12.2187 15.5366 13.7879 13.6509C14.9653 12.2355 16.4885 11.3664 18.3042 11.0967C20.9864 10.7002 23.2699 11.5255 25.1041 13.5287C26.0857 14.6006 26.6664 15.88 26.906 17.3116C27.1411 18.7201 26.9176 20.0802 26.4314 21.408C25.8576 22.9755 25.0258 24.4048 24.0787 25.7695C22.8137 27.5906 21.3758 29.2688 19.802 30.8317C19.7421 30.8894 19.6776 30.9447 19.6153 31H19.3803V30.9977ZM19.4863 21.9359C21.3412 21.9543 22.9081 20.4121 22.9312 18.5426C22.9542 16.6569 21.4104 15.0755 19.5347 15.0617C17.6406 15.0479 16.0852 16.5716 16.0599 18.4642C16.0368 20.3545 17.5761 21.9151 19.484 21.9359H19.4863Z" fill="white"/>
</svg>
