<svg width="42" height="42" viewBox="0 0 42 42" fill="none" xmlns="http://www.w3.org/2000/svg">
<circle cx="21" cy="21" r="20.5" fill="#97D8B2" stroke="white"/>
<path d="M19.2028 27.3776C19.6439 27.2843 22.3317 27.2843 22.7728 27.3776C23.1499 27.4647 23.5577 27.6682 23.5577 28.1125C23.5357 28.5355 23.2876 28.9105 22.9447 29.1487C22.5001 29.4953 21.9783 29.7148 21.4328 29.7939C21.1312 29.833 20.8348 29.8339 20.5436 29.7939C19.9973 29.7148 19.4755 29.4953 19.0318 29.1478C18.688 28.9105 18.4399 28.5355 18.4179 28.1125C18.4179 27.6682 18.8257 27.4647 19.2028 27.3776ZM21.0399 12.1765C22.8753 12.1765 24.7502 13.0474 25.8639 14.4924C26.5865 15.4228 26.918 16.3523 26.918 17.7973V18.1732C26.918 19.2814 27.2109 19.9346 27.8554 20.6873C28.3439 21.2418 28.5 21.9536 28.5 22.7259C28.5 23.4973 28.2465 24.2295 27.7388 24.8241C27.0741 25.5368 26.1366 25.9918 25.1799 26.0709C23.7935 26.1891 22.4062 26.2886 21.0004 26.2886C19.5938 26.2886 18.2074 26.229 16.8209 26.0709C15.8633 25.9918 14.9259 25.5368 14.262 24.8241C13.7543 24.2295 13.5 23.4973 13.5 22.7259C13.5 21.9536 13.657 21.2418 14.1445 20.6873C14.8093 19.9346 15.0829 19.2814 15.0829 18.1732V17.7973C15.0829 16.3132 15.4529 15.3428 16.215 14.3928C17.348 13.0074 19.1641 12.1765 20.961 12.1765H21.0399Z" fill="white"/>
</svg>
