<svg width="42" height="42" viewBox="0 0 42 42" fill="none" xmlns="http://www.w3.org/2000/svg">
<path d="M21 41.5C32.3218 41.5 41.5 32.3218 41.5 21C41.5 9.67816 32.3218 0.5 21 0.5C9.67816 0.5 0.5 9.67816 0.5 21C0.5 32.3218 9.67816 41.5 21 41.5Z" fill="#97D8B2" stroke="white"/>
<path d="M20.9865 12.1765C23.6942 12.1765 25.873 14.3072 25.873 16.9377V18.2906C27.3927 18.765 28.5 20.1407 28.5 21.7839V26.14C28.5 28.1742 26.8135 29.8235 24.7343 29.8235H17.2666C15.1865 29.8235 13.5 28.1742 13.5 26.14V21.7839C13.5 20.1407 14.6082 18.765 16.127 18.2906V16.9377C16.136 14.3072 18.3147 12.1765 20.9865 12.1765ZM20.9955 22.2214C20.5651 22.2214 20.2155 22.5634 20.2155 22.9843V24.9308C20.2155 25.3605 20.5651 25.7024 20.9955 25.7024C21.4348 25.7024 21.7845 25.3605 21.7845 24.9308V22.9843C21.7845 22.5634 21.4348 22.2214 20.9955 22.2214ZM21.0045 13.7109C19.1844 13.7109 17.705 15.1489 17.696 16.9201V18.1003H24.3039V16.9377C24.3039 15.1577 22.8246 13.7109 21.0045 13.7109Z" fill="#FDFEFE"/>
</svg>
