<svg width="42" height="42" viewBox="0 0 42 42" fill="none" xmlns="http://www.w3.org/2000/svg">
<circle cx="21" cy="21" r="20.5" fill="#8D8D8D" fill-opacity="0.1" stroke="#97D8B2"/>
<g clip-path="url(#clip0_622_3795)">
<path d="M25.3237 22.9827C24.679 22.9827 24.0344 22.9827 23.3897 22.9827C21.9308 22.9601 20.8224 21.875 20.7885 20.4169C20.7659 19.5126 20.7207 18.597 21.1617 17.738C21.8629 16.3816 22.96 15.6017 24.4981 15.5225C25.2219 15.4886 25.9457 15.466 26.6582 15.5677C28.4791 15.839 29.8023 17.3424 29.9154 19.1961C29.9493 19.7387 29.9493 20.2925 29.8702 20.8238C29.6779 22.0671 28.6261 22.9601 27.3594 22.9827C26.6922 22.994 26.0136 22.9827 25.3463 22.9827H25.3237ZM25.3237 22.1124C25.9683 22.1124 26.613 22.1124 27.2576 22.1124C27.2803 22.1124 27.3029 22.1124 27.3368 22.1124C28.3094 22.0558 28.988 21.3776 29.022 20.4056C29.0333 20.0099 29.0333 19.6256 29.022 19.23C28.9541 17.8397 27.9362 16.6529 26.5564 16.4494C25.8326 16.3477 25.0862 16.3364 24.3624 16.4042C22.9826 16.5285 21.9082 17.5571 21.6933 18.9135C21.6254 19.3543 21.6367 19.8178 21.6367 20.2699C21.6367 21.3776 22.3606 22.0897 23.4689 22.1124C24.0909 22.1124 24.713 22.1124 25.335 22.1124H25.3237Z" fill="#97D8B2"/>
<path d="M15.6539 33.9921C15.0093 33.9921 14.3646 33.9921 13.72 33.9921C12.1705 33.9582 11.0735 32.8618 11.0735 31.3132C11.0735 30.7029 11.0735 30.0586 11.2205 29.4708C11.6164 27.7527 13.1545 26.5546 14.9075 26.5319C15.5974 26.5319 16.3099 26.498 16.9885 26.5998C18.7754 26.871 20.1326 28.4309 20.1891 30.2168C20.2117 30.8046 20.2343 31.415 20.1212 31.9914C19.8837 33.1557 18.8885 33.9469 17.7123 33.9808C17.0337 34.0034 16.3438 33.9808 15.6652 33.9808L15.6539 33.9921ZM15.6313 33.1331C16.276 33.1331 16.9206 33.1331 17.5653 33.1331C18.5944 33.1218 19.3296 32.3757 19.3409 31.3471C19.3409 31.008 19.3409 30.669 19.3409 30.3185C19.273 28.8039 18.1534 27.5718 16.6379 27.4249C15.9593 27.3571 15.2694 27.3684 14.5908 27.4249C13.3581 27.5379 12.3176 28.4422 12.0574 29.6517C11.933 30.2168 11.9443 30.8046 11.9557 31.3811C11.967 32.3984 12.7021 33.0992 13.7313 33.1218C14.3646 33.1218 14.998 33.1218 15.6313 33.1218V33.1331Z" fill="#97D8B2"/>
<path d="M15.6426 20.5638C16.0158 20.5977 16.4117 20.5751 16.7736 20.6542C17.5766 20.8351 18.1307 21.5246 18.142 22.3497C18.142 22.8923 18.1647 23.4461 18.0629 23.9661C17.8141 25.1416 16.7283 25.9103 15.5069 25.8424C14.3194 25.7746 13.3354 24.893 13.1997 23.7174C13.1432 23.2088 13.1319 22.6775 13.1884 22.1689C13.2902 21.242 14.0366 20.5977 14.9753 20.5864C15.2015 20.5864 15.4277 20.5864 15.6539 20.5864V20.5638H15.6426ZM15.6652 21.4681C15.4277 21.4681 15.1789 21.4568 14.9414 21.4681C14.3759 21.5133 14.0366 21.8637 14.0253 22.4288C14.0253 22.7679 14.0253 23.107 14.0253 23.4574C14.0593 24.2713 14.7039 24.9382 15.5182 25.006C16.3325 25.0625 17.1016 24.52 17.226 23.7061C17.2938 23.254 17.2938 22.7679 17.2599 22.3045C17.226 21.8185 16.8754 21.5133 16.3777 21.4681C16.1402 21.4455 15.9027 21.4681 15.6539 21.4681H15.6652Z" fill="#97D8B2"/>
<path d="M25.3463 9.5883C25.5725 9.5883 25.7987 9.5883 26.0249 9.5883C27.0201 9.62221 27.7553 10.2778 27.8231 11.2725C27.8571 11.7472 27.8457 12.2333 27.7892 12.708C27.6309 13.9966 26.4886 14.9121 25.1767 14.8443C23.9213 14.7765 22.8695 13.714 22.8356 12.4367C22.8356 12.0863 22.8356 11.7246 22.8356 11.3742C22.8582 10.3569 23.5933 9.61091 24.6112 9.577C24.8487 9.577 25.0975 9.577 25.335 9.577L25.3463 9.5883ZM25.3576 10.4473C25.1201 10.4473 24.8713 10.436 24.6338 10.4473C24.1475 10.47 23.7743 10.7751 23.729 11.2612C23.6951 11.7472 23.6838 12.2559 23.7629 12.7306C23.8874 13.4992 24.6677 14.0531 25.4255 13.9853C26.2624 13.9175 26.907 13.2732 26.9523 12.4706C26.9749 12.1089 26.9636 11.7359 26.9523 11.3742C26.9297 10.8656 26.5791 10.4926 26.0701 10.4587C25.8326 10.436 25.5951 10.4587 25.3463 10.4587L25.3576 10.4473Z" fill="#97D8B2"/>
<path d="M25.7987 27.3458C25.7987 27.4814 25.7987 27.617 25.7987 27.7527C25.7874 28.9169 25.7648 30.0812 25.7535 31.2454C25.7535 31.3471 25.7535 31.4488 25.7535 31.5506C25.7422 31.8332 25.6178 32.0253 25.3124 32.014C25.0183 32.014 24.8826 31.8106 24.8939 31.5393C24.8939 30.6124 24.9166 29.6855 24.9279 28.77C24.9279 28.2952 24.9392 27.8205 24.9505 27.244C24.6338 27.5492 24.3737 27.7866 24.1249 28.024C23.91 28.2274 23.6725 28.2839 23.4576 28.0466C23.2427 27.8092 23.3219 27.5831 23.5368 27.3797C24.0457 26.8936 24.5433 26.4189 25.0523 25.9328C25.3011 25.6955 25.5499 25.7068 25.7874 25.9554C26.285 26.4641 26.7826 26.9727 27.269 27.4814C27.4612 27.6849 27.5065 27.9109 27.3029 28.1257C27.0767 28.3404 26.8392 28.2952 26.6356 28.0805C26.3981 27.8318 26.1493 27.5718 25.9118 27.3231C25.8779 27.3345 25.8553 27.3458 25.8213 27.3571L25.7987 27.3458Z" fill="#97D8B2"/>
<path d="M16.1742 16.2572C16.4004 16.0199 16.6266 15.7825 16.8527 15.5451C17.0563 15.3304 17.3051 15.2286 17.5426 15.4547C17.7914 15.6921 17.701 15.9294 17.4748 16.1442C16.9885 16.6303 16.5135 17.1163 16.0271 17.591C15.7444 17.8736 15.5408 17.8736 15.2468 17.591C14.7605 17.1163 14.2741 16.6303 13.7878 16.1555C13.5729 15.9521 13.5164 15.7147 13.7313 15.4886C13.9575 15.2626 14.195 15.3304 14.3985 15.5338C14.636 15.7825 14.8622 16.0312 15.0884 16.2912C15.1337 16.2685 15.1789 16.2572 15.2128 16.2346C15.2128 16.1103 15.2128 15.9747 15.2128 15.8503C15.2128 14.607 15.2128 13.3749 15.2128 12.1315C15.2128 11.9507 15.292 11.7133 15.4277 11.6116C15.7218 11.3855 16.0724 11.6455 16.0724 12.0976C16.0724 13.3523 16.0724 14.607 16.0724 15.8503C16.0724 15.9747 16.0724 16.099 16.0724 16.2233C16.1063 16.2459 16.1402 16.2572 16.1742 16.2799V16.2572Z" fill="#97D8B2"/>
</g>
<defs>
<clipPath id="clip0_622_3795">
<rect width="27" height="26" fill="white" transform="translate(11 8)"/>
</clipPath>
</defs>
</svg>
