<svg width="42" height="42" viewBox="0 0 42 42" fill="none" xmlns="http://www.w3.org/2000/svg">
<circle cx="21" cy="21" r="20.5" fill="#97D8B2" stroke="white"/>
<path d="M29.8234 20.9998C29.8234 25.8739 25.8731 29.8233 20.9999 29.8233C16.1267 29.8233 12.1764 25.8739 12.1764 20.9998C12.1764 16.1275 16.1267 12.1763 20.9999 12.1763C25.8731 12.1763 29.8234 16.1275 29.8234 20.9998Z" fill="white"/>
<path d="M20.9956 23.584C21.4306 23.584 21.7765 23.9307 21.7765 24.356C21.7765 24.7813 21.4306 25.1281 21.0044 25.1281C20.5765 25.1281 20.2279 24.7813 20.2279 24.356C20.2279 23.9307 20.5729 23.584 20.9956 23.584ZM20.9956 16.8844C21.4209 16.8844 21.7676 17.2312 21.7676 17.6565V21.5565C21.7676 21.9818 21.4209 22.3285 20.9956 22.3285C20.5703 22.3285 20.2235 21.9818 20.2235 21.5565V17.6565C20.2235 17.2312 20.5703 16.8844 20.9956 16.8844Z" fill="#97D8B2"/>
</svg>
