<svg width="22" height="22" viewBox="0 0 22 22" fill="none" xmlns="http://www.w3.org/2000/svg">
<path fill-rule="evenodd" clip-rule="evenodd" d="M10.7607 1.83334C15.6832 1.83334 19.6872 5.83734 19.6872 10.7598C19.6872 13.0823 18.7959 15.2004 17.3374 16.7901L20.2073 19.654C20.4759 19.9226 20.4768 20.3571 20.2082 20.6257C20.0744 20.7613 19.8975 20.8282 19.7215 20.8282C19.5464 20.8282 19.3704 20.7613 19.2356 20.6275L16.3311 17.7311C14.8032 18.9547 12.866 19.6873 10.7607 19.6873C5.83817 19.6873 1.83325 15.6823 1.83325 10.7598C1.83325 5.83734 5.83817 1.83334 10.7607 1.83334ZM10.7607 3.20834C6.59625 3.20834 3.20825 6.59543 3.20825 10.7598C3.20825 14.9243 6.59625 18.3123 10.7607 18.3123C14.9242 18.3123 18.3122 14.9243 18.3122 10.7598C18.3122 6.59543 14.9242 3.20834 10.7607 3.20834Z" fill="#121212"/>
</svg>
