<svg width="38" height="38" viewBox="0 0 38 38" fill="none" xmlns="http://www.w3.org/2000/svg">
<circle cx="19" cy="19" r="19" fill="#0A22FB"/>
<g clip-path="url(#clip0_618_4987)">
<path d="M27.9988 18.6159C28.0058 18.0784 27.7146 17.5843 27.2417 17.325L16.2228 11.2709C15.7293 10.992 15.1475 11.0262 14.6824 11.3438C14.2088 11.6667 13.9664 12.4354 14.0988 12.9906L15.1275 17.3003C15.2331 17.7423 15.6286 18.0534 16.0836 18.0515L22.2156 18.0325C22.5296 18.0262 22.7843 18.2808 22.778 18.5948C22.7771 18.9035 22.5261 19.1544 22.2121 19.1607L16.0743 19.175C15.6193 19.1759 15.2218 19.4884 15.1135 19.931L14.0484 24.2579C13.9191 24.7692 14.0666 25.2796 14.4273 25.6404C14.4698 25.6828 14.5175 25.7306 14.5653 25.7677C15.0325 26.1281 15.6444 26.1741 16.1668 25.8958L27.2231 19.9009C27.6975 19.6493 27.9918 19.1534 27.9988 18.6159Z" fill="white"/>
</g>
<defs>
<clipPath id="clip0_618_4987">
<rect width="18" height="18" fill="white" transform="translate(10 10)"/>
</clipPath>
</defs>
</svg>
