<svg width="34" height="34" viewBox="0 0 34 34" fill="none" xmlns="http://www.w3.org/2000/svg">
<circle cx="17" cy="17" r="17" fill="#FFF5D5"/>
<path d="M16.0948 9.92837C16.4547 9.16162 17.5453 9.16162 17.9052 9.92838L19.5545 13.4418C19.6961 13.7434 19.9785 13.9547 20.3078 14.0053L24.0777 14.5847C24.882 14.7083 25.2098 15.6895 24.6413 16.2717L21.8527 19.1277C21.6309 19.3549 21.5302 19.6739 21.5813 19.9873L22.2304 23.9672C22.3648 24.7911 21.4901 25.4073 20.7596 25.0033L17.4839 23.1919C17.1828 23.0254 16.8172 23.0254 16.5161 23.1919L13.2404 25.0033C12.5099 25.4073 11.6352 24.7911 11.7696 23.9672L12.4187 19.9873C12.4698 19.6739 12.3691 19.3549 12.1473 19.1277L9.35869 16.2717C8.79024 15.6895 9.11804 14.7083 9.92229 14.5847L13.6922 14.0053C14.0215 13.9547 14.3039 13.7434 14.4455 13.4418L16.0948 9.92837Z" fill="#FFC02F"/>
</svg>
